HIERARCHY
ROOT Hips
{
  OFFSET 49.1132 54.1724 -0.271898
  CHANNELS 6 Xposition Yposition Zposition Zrotation Xrotation Yrotation
  JOINT spine
  {
    OFFSET 0 8.30103 0.477351
    CHANNELS 3 Zrotation Xrotation Yrotation
    JOINT spine1
    {
      OFFSET 0 10.4565 0
      CHANNELS 3 Zrotation Xrotation Yrotation
      JOINT spine2
      {
        OFFSET 0 10.0192 0
        CHANNELS 3 Zrotation Xrotation Yrotation
        JOINT Neck
        {
          OFFSET 0 25.7235 1.22641
          CHANNELS 3 Zrotation Xrotation Yrotation
          JOINT Head
          {
            OFFSET 0 7.77175 0
            CHANNELS 3 Zrotation Xrotation Yrotation
            End Site
            {
              OFFSET 0 18.812 -6.20394
            }
          }
        }
        JOINT RightShoulder
        {
          OFFSET -4.2188 10.82 -0.587439
          CHANNELS 3 Zrotation Xrotation Yrotation
          JOINT RightArm
          {
            OFFSET 0 14.1914 0
            CHANNELS 3 Zrotation Xrotation Yrotation
            JOINT RightArmRoll
            {
              OFFSET 0 7.16408 0
              CHANNELS 3 Zrotation Xrotation Yrotation
              JOINT RightForeArm
              {
                OFFSET 0 20.8665 0
                CHANNELS 3 Zrotation Xrotation Yrotation
                JOINT RightForeArmRoll
                {
                  OFFSET 0 8.03921 0
                  CHANNELS 3 Zrotation Xrotation Yrotation
                  JOINT RightHand
                  {
                    OFFSET 0 16.133 0
                    CHANNELS 3 Zrotation Xrotation Yrotation
                    End Site
                    {
                      OFFSET 0 0 0
                    }
                  }
                }
              }
            }
          }
        }
        JOINT LeftShoulder
        {
          OFFSET 4.2188 10.82 -0.587439
          CHANNELS 3 Zrotation Xrotation Yrotation
          JOINT LeftArm
          {
            OFFSET 0 14.1914 0
            CHANNELS 3 Zrotation Xrotation Yrotation
            JOINT LeftArmRoll
            {
              OFFSET 0 7.16408 0
              CHANNELS 3 Zrotation Xrotation Yrotation
              JOINT LeftForeArm
              {
                OFFSET 0 20.8665 0
                CHANNELS 3 Zrotation Xrotation Yrotation
                JOINT LeftForeArmRoll
                {
                  OFFSET 0 8.03921 0
                  CHANNELS 3 Zrotation Xrotation Yrotation
                  JOINT LeftHand
                  {
                    OFFSET 0 16.133 0
                    CHANNELS 3 Zrotation Xrotation Yrotation
                    End Site
                    {
                      OFFSET 0 0 0
                    }
                  }
                }
              }
            }
          }
        }
      }
    }
  }
  JOINT RightUpLeg
  {
    OFFSET -7.35773 -1.34921 -1.13181
    CHANNELS 3 Zrotation Xrotation Yrotation
    JOINT RightUpLegRoll
    {
      OFFSET 0 18.9168 0
      CHANNELS 3 Zrotation Xrotation Yrotation
      JOINT RightLeg
      {
        OFFSET 0 -23.4256 0
        CHANNELS 3 Zrotation Xrotation Yrotation
        JOINT RightLegRoll
        {
          OFFSET 0 23.5023 0
          CHANNELS 3 Zrotation Xrotation Yrotation
          JOINT RightFoot
          {
            OFFSET 0 19.5617 0
            CHANNELS 3 Zrotation Xrotation Yrotation
            JOINT RightToeBase
            {
              OFFSET 0 16.3526 0
              CHANNELS 3 Zrotation Xrotation Yrotation
              End Site
              {
                OFFSET 0.00693125 7.91944 -0.912836
              }
            }
          }
        }
      }
    }
  }
  JOINT LeftUpLeg
  {
    OFFSET 7.35773 -1.34921 -1.13181
    CHANNELS 3 Zrotation Xrotation Yrotation
    JOINT LeftUpLegRoll
    {
      OFFSET 0 18.9169 0
      CHANNELS 3 Zrotation Xrotation Yrotation
      JOINT LeftLeg
      {
        OFFSET 0 23.4255 0
        CHANNELS 3 Zrotation Xrotation Yrotation
        JOINT LeftLegRoll
        {
          OFFSET 0 23.7195 0
          CHANNELS 3 Zrotation Xrotation Yrotation
          JOINT LeftFoot
          {
            OFFSET 0 19.3444 0
            CHANNELS 3 Zrotation Xrotation Yrotation
            JOINT LeftToeBase
            {
              OFFSET 0 16.3526 0
              CHANNELS 3 Zrotation Xrotation Yrotation
              End Site
              {
                OFFSET -0.0310629 7.91944 -0.912836
              }
            }
          }
        }
      }
    }
  }
}
MOTION
Frames: 5
Frame Time: 0.00208333
47.1899 98.8334 31.2096 0.257962 -2.17514 2.07586 0.103575 -1.38738 0.137582 0.207253 1.2151 0.255495 0.204232 2.86015 0.260579 -2.27768 20.0195 -0.556993 1.36306 -5.94891 -1.0872 71.6918 -1.00747 -1.99427 100.213 29.8249 20.1355 2.20734e-005 2.99003e-007 -5.26909e-007 7.82777 0.0590211 0.20053 3.82846e-006 6.94372e-007 -3.02213 8.02914 -4.95144 0.697672 -66.1897 1.53145 0.0915144 -102.45 18.0491 -12.6484 -3.89988e-006 3.8232e-006 -4.92491e-006 -10.164 6.0221 1.13257 1.61973e-005 4.31227e-006 3.00377 -8.02896 -4.95144 -0.697671 175.717 1.68658 0.565674 180 7.01548e-015 178.928 176.932 7.08506 179.69 -1.95755e-006 -6.86802e-006 0.0982727 -19.2222 68.6304 20.058 8.13466 25.2328 -3.48695 -174.16 1.97489 0.00128014 -1.07169e-005 -4.64205e-006 -1.15611 -3.29664 -10.9409 0.417004 -9.07446e-007 -8.28959e-006 -0.147211 18.4362 67.563 -19.1757 -8.13557 25.2327 3.48735 
47.1874 98.8305 31.1865 0.256312 -2.16119 2.08091 0.103554 -1.38459 0.136955 0.207459 1.22163 0.254855 0.204459 2.86668 0.259333 -2.30143 19.9974 -0.549478 1.38244 -5.9439 -1.08406 71.6654 -1.00934 -1.99253 100.247 29.8356 20.1391 2.20734e-005 2.99004e-007 -5.26909e-007 7.80726 0.058987 0.200364 3.82846e-006 6.94372e-007 -3.02228 8.02914 -4.95144 0.697672 -66.1948 1.52285 0.096714 -102.447 18.0557 -12.6639 -3.89988e-006 3.8232e-006 -4.92491e-006 -10.1534 5.99575 1.12968 1.61973e-005 4.31227e-006 3.00377 -8.02896 -4.95144 -0.697671 175.716 1.72828 0.567992 180 7.01548e-015 178.928 176.927 7.10883 179.691 -1.95755e-006 -6.86802e-006 0.0984827 -19.2254 68.634 20.0619 8.13466 25.2328 -3.48695 -174.157 2.01296 -0.00105054 -1.07169e-005 -4.64205e-006 -1.15615 -3.29852 -10.9539 0.416348 -9.07446e-007 -8.28959e-006 -0.14742 18.4298 67.555 -19.1689 -8.13557 25.2327 3.48735 
47.1832 98.8226 31.1636 0.254715 -2.14747 2.08613 0.103498 -1.38185 0.136337 0.207623 1.2281 0.254255 0.204644 2.87315 0.258105 -2.32452 19.9755 -0.54219 1.40121 -5.9389 -1.08104 71.6394 -1.01128 -1.99085 100.281 29.8466 20.1425 2.20734e-005 2.99004e-007 -5.26909e-007 7.7869 0.0589607 0.200204 3.82846e-006 6.94372e-007 -3.02241 8.02914 -4.95144 0.697672 -66.1998 1.51435 0.101851 -102.444 18.0623 -12.6789 -3.89988e-006 3.8232e-006 -4.92491e-006 -10.1432 5.96956 1.12681 1.61973e-005 4.31227e-006 3.00377 -8.02896 -4.95144 -0.697671 175.715 1.76936 0.570418 180 7.01548e-015 178.929 176.921 7.13239 179.692 -1.95755e-006 -6.86802e-006 0.098694 -19.2289 68.6378 20.066 8.13466 25.2328 -3.48695 -174.154 2.05023 -0.00290256 -1.07169e-005 -4.64205e-006 -1.15621 -3.30006 -10.9662 0.415741 -9.07446e-007 -8.28959e-006 -0.147628 18.4235 67.5472 -19.1622 -8.13557 25.2327 3.48735 
47.1805 98.8185 31.1452 0.253155 -2.13392 2.09146 0.103416 -1.37914 0.135724 0.207756 1.23452 0.253682 0.204798 2.87957 0.256891 -2.34714 19.9537 -0.535059 1.41955 -5.93392 -1.0781 71.6135 -1.01328 -1.98922 100.315 29.8577 20.1459 2.20734e-005 2.99004e-007 -5.26909e-007 7.76664 0.0589399 0.200049 3.82846e-006 6.94372e-007 -3.02255 8.02914 -4.95144 0.697672 -66.2047 1.50593 0.106943 -102.441 18.069 -12.6937 -3.89988e-006 3.8232e-006 -4.92491e-006 -10.1331 5.94347 1.12394 1.61973e-005 4.31227e-006 3.00377 -8.02896 -4.95144 -0.697671 175.714 1.81002 0.57292 180 7.01548e-015 178.929 176.915 7.15577 179.692 -1.95755e-006 -6.86802e-006 0.0989064 -19.2324 68.6418 20.0703 8.13466 25.2328 -3.48695 -174.151 2.08693 -0.00441952 -1.07169e-005 -4.64205e-006 -1.15628 -3.30136 -10.978 0.415167 -9.07446e-007 -8.28959e-006 -0.147837 18.4173 67.5395 -19.1556 -8.13557 25.2327 3.48735 
47.1903 98.8137 31.103 0.251615 -2.12046 2.09686 0.103319 -1.37646 0.135114 0.207872 1.24091 0.253126 0.204935 2.88597 0.255685 -2.3695 19.932 -0.52802 1.43765 -5.92894 -1.07521 71.5877 -1.01531 -1.98761 100.349 29.8688 20.1492 2.20734e-005 2.99004e-007 -5.26909e-007 7.74643 0.0589222 0.199898 3.82846e-006 6.94372e-007 -3.02267 8.02914 -4.95144 0.697672 -66.2096 1.49755 0.11201 -102.438 18.0757 -12.7082 -3.89988e-006 3.8232e-006 -4.92491e-006 -10.1233 5.91745 1.12108 1.61973e-005 4.31227e-006 3.00377 -8.02896 -4.95144 -0.697671 175.713 1.85043 0.575465 180 7.01548e-015 178.929 176.909 7.17904 179.693 -1.95755e-006 -6.86802e-006 0.0991192 -19.2361 68.6459 20.0746 8.13466 25.2328 -3.48695 -174.148 2.12331 -0.00574505 -1.07169e-005 -4.64205e-006 -1.15636 -3.30252 -10.9895 0.414613 -9.07446e-007 -8.28959e-006 -0.148045 18.4111 67.5318 -19.149 -8.13557 25.2327 3.48735 
